<svg width="160" height="160" viewBox="0 0 160 160" fill="none" xmlns="http://www.w3.org/2000/svg">
<circle cx="80" cy="80" r="80" fill="#3498DB"/>
<path d="M40.4166 42.5H111.25C111.25 42.5 119.583 46.6667 119.583 57.0833C119.583 67.5 111.25 71.6667 111.25 71.6667H40.4166C40.4166 71.6667 48.75 67.5 48.75 57.0833C48.75 46.6667 40.4166 42.5 40.4166 42.5ZM119.583 88.3333H48.75C48.75 88.3333 40.4166 92.5 40.4166 102.917C40.4166 113.333 48.75 117.5 48.75 117.5H119.583C119.583 117.5 111.25 113.333 111.25 102.917C111.25 92.5 119.583 88.3333 119.583 88.3333Z" stroke="white" stroke-width="8" stroke-linecap="round" stroke-linejoin="round"/>
</svg>
